<svg width="46" height="50" viewBox="0 0 46 50" fill="none" xmlns="http://www.w3.org/2000/svg">
<path d="M6.57903 24.104C5.74817 24.104 4.96682 24.4277 4.37825 25.0164C3.16838 26.2299 3.16838 28.2043 4.37903 29.4186C4.96692 30.0065 5.74817 30.3302 6.57903 30.3302C7.40999 30.3302 8.19124 30.0065 8.77835 29.4193C9.36731 28.832 9.69202 28.0511 9.6926 27.2204C9.69329 26.3885 9.36887 25.6055 8.77913 25.0156C8.19124 24.4277 7.40999 24.104 6.57903 24.104ZM7.74329 28.3828C7.43206 28.6941 7.01868 28.8653 6.57903 28.8653C6.13948 28.8653 5.726 28.694 5.41565 28.3835C4.77434 27.7403 4.77434 26.6938 5.41487 26.0514C5.726 25.7402 6.13948 25.5689 6.57903 25.5689C7.01868 25.5689 7.43206 25.7402 7.74329 26.0514C8.05608 26.3643 8.22825 26.779 8.22786 27.2193C8.22756 27.6583 8.05569 28.0713 7.74329 28.3828Z" fill="#E69A37"/>
<path d="M21.4648 39.9668C21.1799 39.6795 20.7191 39.6802 20.4318 39.9652C20.1446 40.2499 20.1453 40.7164 20.43 41.0038C20.5733 41.1482 20.7616 41.2206 20.9502 41.2206C21.1365 41.2206 21.323 41.1498 21.4658 41.0082C21.753 40.7235 21.755 40.2597 21.4703 39.9725L21.4648 39.9668Z" fill="#E69A37"/>
<path d="M42.6578 27.4531H35.1558C34.7512 27.4531 34.4234 27.7811 34.4234 28.1856C34.4234 28.59 34.7512 28.918 35.1558 28.918H42.6578C43.6625 28.918 44.4799 29.844 44.4799 30.9822V31.6858H23.3578V28.918H31.7553C32.1599 28.918 32.4877 28.59 32.4877 28.1856C32.4877 27.7811 32.1599 27.4531 31.7553 27.4531H23.1236C22.445 27.4531 21.893 28.0251 21.893 28.7282V31.8755C21.893 32.5786 22.4449 33.1506 23.1236 33.1506H30.9121C30.604 33.5407 30.2715 33.9154 29.9157 34.2712C28.5225 35.6645 26.8201 36.7142 24.9641 37.3333C24.1557 35.9539 22.6584 35.025 20.9475 35.025C19.2376 35.025 17.7411 35.9527 16.9324 37.3308C15.0795 36.7121 13.3796 35.6632 11.9877 34.2713C11.4244 33.7079 10.9184 33.0969 10.4762 32.4493C10.7258 32.2632 10.9655 32.0578 11.1919 31.8314C12.4243 30.5988 13.1031 28.9603 13.1031 27.2176C13.1031 25.475 12.4244 23.8374 11.1922 22.6063C10.549 21.9622 9.79416 21.4711 8.97209 21.1472C9.47112 19.7026 10.218 18.3815 11.2004 17.2056L18.0555 22.9192C18.278 23.1063 18.5536 23.2062 18.8413 23.2062C18.8787 23.2062 18.9163 23.2045 18.954 23.2011C19.1491 23.1835 19.3325 23.1203 19.4936 23.0197L20.4956 23.8564C20.8826 24.1785 21.353 24.3357 21.8207 24.3357C22.414 24.3357 23.0028 24.0827 23.4106 23.5929L23.5262 23.4542L24.939 24.6324C25.3878 25.0066 25.9365 25.1901 26.4948 25.1901C27.1844 25.1901 27.8886 24.9098 28.4361 24.3623C28.8857 23.9126 29.1168 23.3004 29.0868 22.6383C29.054 21.9147 28.7168 21.2344 28.1622 20.7723L26.748 19.591L26.8631 19.4529C27.2166 19.0304 27.3839 18.4937 27.3341 17.9415C27.2843 17.3896 27.0237 16.8914 26.6011 16.5397L25.5957 15.7C25.667 15.5204 25.6958 15.3254 25.6765 15.1274C25.6447 14.8006 25.4873 14.5066 25.2398 14.3048L23.2141 12.6156L23.214 12.6155L14.9811 5.75411C14.3219 5.20274 13.4849 4.94171 12.6228 5.01876C11.8976 5.0838 11.2319 5.38233 10.7095 5.86856L8.1719 3.74952L8.18293 3.73634C8.9885 2.77432 8.86018 1.33536 7.89573 0.527546C7.42932 0.138484 6.83762 -0.0453051 6.2303 0.00957768C5.62297 0.0646558 5.07434 0.35196 4.68538 0.818269L1.09553 5.12051C0.706763 5.58673 0.522583 6.17794 0.577173 6.78507C0.63186 7.39229 0.918286 7.94044 1.38362 8.32813C1.80901 8.68301 2.32708 8.85616 2.8425 8.85616C3.49475 8.85616 4.1428 8.57872 4.59309 8.04122C4.59338 8.04083 4.59377 8.04044 4.59407 8.03995L4.60569 8.02598L7.14417 10.1437C6.41663 11.2813 6.48176 12.7494 7.27161 13.8129C5.41545 16.0179 4.1218 18.6435 3.50178 21.463C2.94397 21.7623 2.42707 22.1451 1.96692 22.6053C0.734204 23.8365 0.0552979 25.4744 0.0552979 27.2172C0.0552979 28.9599 0.734106 30.5984 1.96692 31.8313C2.86174 32.725 3.95383 33.3031 5.10393 33.5683C5.93977 35.1744 7.01926 36.6443 8.31653 37.9418C10.5334 40.1588 13.2817 41.7465 16.2943 42.5577V44.4805H11.3389C10.9343 44.4805 10.6065 44.8084 10.6065 45.2129C10.6065 45.6174 10.9343 45.9453 11.3389 45.9453H38.7036C38.7109 45.9453 38.7225 45.9569 38.7225 45.9642V48.5159C38.7225 48.5232 38.7109 48.5349 38.7036 48.5349H3.19124C3.18401 48.5349 3.17239 48.5232 3.17239 48.5159V45.9642C3.17239 45.9569 3.18401 45.9453 3.19124 45.9453H7.9385C8.34309 45.9453 8.67092 45.6174 8.67092 45.2129C8.67092 44.8084 8.34309 44.4805 7.9385 44.4805H3.19124C2.37307 44.4805 1.70754 45.1461 1.70754 45.9642V48.5159C1.70754 49.3341 2.37307 49.9997 3.19124 49.9997H38.7036C39.5218 49.9997 40.1873 49.3341 40.1873 48.5159V45.9642C40.1873 45.1461 39.5218 44.4805 38.7036 44.4805H25.6007V42.5607C28.618 41.749 31.3682 40.1603 33.5839 37.9418C34.9931 36.5325 36.1431 34.9222 37.0079 33.1502H44.7171C45.3942 33.1502 45.9448 32.5782 45.9448 31.8751V30.9818C45.9447 29.0362 44.4703 27.4531 42.6578 27.4531ZM27.2238 21.8971C27.46 22.094 27.6094 22.3958 27.6234 22.7047C27.6313 22.8787 27.5989 23.1278 27.4001 23.3267C27.007 23.7197 26.3578 23.9082 25.8771 23.5074L24.4643 22.3294L25.2087 21.4368L25.8099 20.7163L27.2238 21.8971ZM25.6629 17.6648C25.7852 17.7665 25.8605 17.9115 25.8751 18.0732C25.8897 18.2349 25.8415 18.3911 25.7388 18.5139L22.2851 22.6551C22.0756 22.9065 21.6854 22.941 21.4334 22.7312L20.4788 21.9342L24.7052 16.865L25.6629 17.6648ZM11.5506 7.10509C11.8527 6.74307 12.2799 6.52032 12.7535 6.47784C12.8081 6.47296 12.8623 6.47052 12.9164 6.47052C13.3294 6.47052 13.7239 6.61241 14.0421 6.87862L24.1205 15.2788L18.8135 21.6442L8.73499 13.244C7.98625 12.6213 7.88528 11.5036 8.5092 10.7531L11.5506 7.10509ZM3.46956 7.10137C3.18108 7.44503 2.66643 7.49083 2.3217 7.20313C2.15706 7.06593 2.05559 6.87091 2.03606 6.65391C2.01653 6.43624 2.08196 6.22481 2.22034 6.05899L5.81008 1.75675C5.94866 1.59063 6.14485 1.48829 6.36252 1.46856C6.38801 1.46622 6.4134 1.46505 6.4386 1.46505C6.62883 1.46505 6.81067 1.53018 6.95618 1.65157C7.30022 1.93985 7.3468 2.45313 7.05881 2.79708L3.46956 7.10137ZM5.54387 6.90108L7.23372 4.87452L9.75081 6.97647L8.06223 9.00196L5.54387 6.90108ZM8.33928 14.8209L10.0757 16.2682C8.96916 17.5983 8.11038 19.1318 7.55559 20.7666C7.23557 20.7189 6.90969 20.6944 6.5802 20.6944C6.09817 20.6944 5.62454 20.7482 5.16487 20.8494C5.78791 18.641 6.86858 16.5862 8.33928 14.8209ZM3.00237 30.7954C2.04651 29.8396 1.52004 28.5689 1.52004 27.2174C1.52004 25.8661 2.04641 24.5963 3.00237 23.6415C3.95813 22.6857 5.22883 22.1592 6.5802 22.1592C7.93137 22.1592 9.2012 22.6856 10.1556 23.6411C10.1558 23.6413 10.156 23.6415 10.1563 23.6418C11.1118 24.5962 11.6382 25.866 11.6382 27.2173C11.6382 28.5688 11.1117 29.8395 10.1559 30.7953C8.18469 32.7665 4.97561 32.7663 3.00237 30.7954ZM16.2943 39.6782V41.0343C13.6788 40.2615 11.2936 38.8476 9.35237 36.9063C8.39084 35.9446 7.56008 34.8802 6.87209 33.7308C7.67063 33.6953 8.46311 33.513 9.20725 33.1866C9.71467 33.9421 10.2987 34.6536 10.9517 35.3068C12.4868 36.842 14.3583 38.0033 16.3993 38.6968C16.3311 39.0134 16.2943 39.3415 16.2943 39.6782ZM24.1359 44.4808H17.7591V39.6783C17.7591 37.9202 19.1894 36.4899 20.9474 36.4899C22.7055 36.4899 24.1358 37.9202 24.1358 39.6783V44.4808H24.1359ZM32.5477 36.9067C30.6073 38.8493 28.2203 40.2643 25.6007 41.0373V39.6782C25.6007 39.3425 25.5641 39.0153 25.4963 38.6996C27.5407 38.0059 29.4149 36.8435 30.9516 35.3068C31.6162 34.6421 32.2103 33.9182 32.7219 33.1505H35.3602C34.612 34.5249 33.6696 35.7848 32.5477 36.9067Z" fill="#E69A37"/>
</svg>
